#!OML:ASF F:\VICON\USERDATA\INSTALL\Justin_Nancy\Justin_Nancy.ASF
:FULLY-SPECIFIED
:DEGREES
162
root 0.964033 17.4627 -19.9889 4.48134 -1.35258 5.82445
lowerback 7.02464 0.232497 -5.27897
upperback 0.756993 -0.107278 -0.24119
thorax -3.14863 0.0119255 2.72687
lowerneck -14.8715 -4.0279 -10.2008
upperneck 20.6229 -4.49272 6.12817
head 9.32579 -2.2422 3.2511
rclavicle -1.35174e-014 1.63003e-014
rhumerus -30.2713 -6.7669 -83.7371
rradius 36.6221
rwrist 4.01293
rhand -16.4098 13.781
rfingers 7.12502
rthumb 9.80477 -15.9708
lclavicle -1.35174e-014 1.63003e-014
lhumerus -27.1231 5.97745 82.4736
lradius 28.5347
lwrist -6.83543
lhand -15.2619 26.6148
lfingers 7.12502
lthumb 10.9121 56.3112
rfemur -31.0916 -3.64111 15.8584
rtibia 69.315
rfoot -7.20416 -8.0113
rtoes 3.90156
lfemur -12.8146 0.0347704 -29.9209
ltibia 26.9595
lfoot -15.9823 -0.237742
ltoes 4.33983
163
root 0.960467 17.4302 -19.8455 4.32544 -1.46891 6.06127
lowerback 7.15377 0.19757 -5.67273
upperback 0.852051 -0.187481 -0.177811
thorax -3.11379 -0.0255113 3.02212
lowerneck -15.0508 -4.04799 -10.2872
upperneck 20.6311 -4.46901 6.07885
head 9.36137 -2.24042 3.24953
rclavicle -1.2921e-014 -1.98785e-015
rhumerus -30.0315 -6.18168 -83.7834
rradius 36.9366
rwrist 3.62886
rhand -16.2063 13.2701
rfingers 7.12502
rthumb 10.0012 -16.4723
lclavicle -1.2921e-014 -1.98785e-015
lhumerus -26.6496 5.86281 82.5543
lradius 28.9501
lwrist -7.78417
lhand -13.3395 27.7217
lfingers 7.12502
lthumb 12.7659 57.3115
rfemur -32.071 -3.59864 15.6963
rtibia 68.3988
rfoot -7.51589 -8.38537
rtoes 3.96542
lfemur -12.3687 -0.0357871 -30.2262
ltibia 27.4538
lfoot -16.5689 0.102213
ltoes 4.47316
164
root 0.947418 17.4006 -19.6975 4.21122 -1.79202 5.71841
lowerback 7.24642 0.237703 -5.60845
upperback 0.965445 -0.124889 0.0207596
thorax -3.05321 0.00177013 3.18661
lowerneck -15.2904 -4.0693 -10.3066
upperneck 20.6065 -4.46712 6.07718
head 9.39764 -2.23711 3.24972
rclavicle -6.36111e-015 -5.96354e-015
rhumerus -29.843 -5.79282 -83.8496
rradius 37.35
rwrist 3.44662
rhand -16.0258 12.2246
rfingers 7.12502
rthumb 10.1753 -17.5094
lclavicle -6.36111e-015 -5.96354e-015
lhumerus -26.0092 5.69621 82.581
lradius 29.2736
lwrist -8.97656
lhand -10.9114 29.6169
lfingers 7.12502
lthumb 15.1058 59.0457
rfemur -33.0083 -3.10637 16.2641
rtibia 67.2645
rfoot -7.50713 -9.45908
rtoes 4.54536
lfemur -11.884 -0.140762 -29.8556
ltibia 27.7594
lfoot -17.0879 0.652289
ltoes 4.15606
165
root 0.955048 17.372 -19.5526 4.17449 -1.83429 5.95343
lowerback 7.25261 0.18039 -5.71477
upperback 1.05002 -0.210301 -0.0775211
thorax -2.96046 -0.0443448 3.15229
lowerneck -15.1957 -4.07965 -10.1758
upperneck 20.2733 -4.51578 6.08823
head 9.26503 -2.24629 3.22192
rclavicle 8.54774e-015 7.55382e-015
rhumerus -29.6653 -5.76721 -83.9398
rradius 37.6413
rwrist 3.64596
rhand -16.0771 12.1531
rfingers 7.12502
rthumb 10.1258 -17.5833
lclavicle 8.54774e-015 7.55382e-015
lhumerus -25.5002 5.17273 82.554
lradius 29.6249
lwrist -9.81159
lhand -9.6904 30.605
lfingers 7.12502
lthumb 16.2818 59.9414
rfemur -33.9125 -3.17446 16.0534
rtibia 65.9428
rfoot -7.62735 -10.2151
rtoes 3.72812
lfemur -11.3882 -0.479974 -30.1961
ltibia 27.9873
lfoot -17.5093 1.14192
ltoes 4.16695
166
root 0.963811 17.3483 -19.4076 4.09693 -1.75752 6.34762
lowerback 7.35408 0.0988446 -5.94042
upperback 1.03126 -0.34829 -0.205253
thorax -3.02281 -0.108832 3.16033
lowerneck -14.8158 -4.07746 -10.0722
upperneck 19.934 -4.56894 6.09815
head 9.07958 -2.26498 3.20079
rclavicle -1.93815e-014 -1.94809e-014
rhumerus -29.5509 -5.65412 -83.9697
rradius 37.7088
rwrist 3.54071
rhand -16.3709 12.5291
rfingers 7.12502
rthumb 9.84232 -17.2208
lclavicle -1.93815e-014 -1.94809e-014
lhumerus -25.2968 4.69098 82.522
lradius 29.8556
lwrist -10.6439
lhand -9.43759 29.6514
lfingers 7.12502
lthumb 16.5252 58.9677
rfemur -34.6383 -3.42384 15.6225
rtibia 64.4091
rfoot -7.94568 -10.1919
rtoes 2.53402
lfemur -10.7073 -0.731902 -30.7232
ltibia 28.0108
lfoot -17.8548 1.46184
ltoes 4.25757
167
root 0.947167 17.3412 -19.2535 4.00266 -1.94178 5.90894
lowerback 7.42312 0.0652483 -5.79664
upperback 0.987775 -0.379436 0.0416209
thorax -3.10277 -0.121499 3.34018
lowerneck -14.4574 -3.99492 -10.2094
upperneck 19.8109 -4.47723 6.19844
head 8.96874 -2.22699 3.27229
rclavicle 5.06901e-015 -6.36111e-015
rhumerus -29.5601 -5.29726 -83.9193
rradius 37.8764
rwrist 3.50685
rhand -16.4598 12.311
rfingers 7.12502
rthumb 9.75653 -17.443
lclavicle 5.06901e-015 -6.36111e-015
lhumerus -25.2144 4.42676 82.5656
lradius 29.8764
lwrist -10.9238
lhand -9.8651 28.5422
lfingers 7.12502
lthumb 16.1136 57.8923
rfemur -35.1898 -2.90136 16.2671
rtibia 62.5543
rfoot -8.19812 -10.4344
rtoes 1.33819
lfemur -9.95238 -0.930732 -30.2399
ltibia 27.8403
lfoot -18.0765 1.93342
ltoes 4.15228
168
root 0.956329 17.3338 -19.1051 4.03769 -1.69151 6.21817
lowerback 7.50049 -0.166127 -6.00831
upperback 0.928852 -0.710693 0.0615234
thorax -3.1712 -0.280031 3.51388
lowerneck -14.4522 -3.91664 -10.4423
upperneck 19.9156 -4.33935 6.29675
head 8.99929 -2.1714 3.36418
rclavicle 1.60022e-014 3.97569e-016
rhumerus -29.5614 -4.95977 -83.8328
rradius 38.2331
rwrist 3.47138
rhand -16.1604 12.0756
rfingers 7.12502
rthumb 10.0454 -17.6647
lclavicle 1.60022e-014 3.97569e-016
lhumerus -25.048 4.3782 82.616
lradius 29.9225
lwrist -11.2214
lhand -10.3976 27.7596
lfingers 7.12502
lthumb 15.6008 57.1505
rfemur -35.763 -3.35118 15.949
rtibia 60.5784
rfoot -8.82697 -10.3453
rtoes -1.54244
lfemur -9.17958 -1.07911 -30.6457
ltibia 27.5007
lfoot -18.3991 1.92396
ltoes 3.68081
169
root 0.951861 17.3232 -18.9465 4.08257 -1.79833 6.30419
lowerback 7.38046 -0.221547 -6.16718
upperback 0.882318 -0.78953 0.0899807
thorax -3.14171 -0.317001 3.63942
lowerneck -14.3145 -3.88212 -10.4492
upperneck 19.9251 -4.32296 6.37324
head 8.97712 -2.15904 3.39547
rclavicle -5.96354e-015 1.98785e-015
rhumerus -29.754 -4.96666 -83.7397
rradius 38.6625
rwrist 3.24544
rhand -15.7973 12.406
rfingers 7.12502
rthumb 10.3957 -17.317
lclavicle -5.96354e-015 1.98785e-015
lhumerus -24.8943 3.97474 82.639
lradius 30.1555
lwrist -11.335
lhand -10.6026 27.2656
lfingers 7.12502
lthumb 15.4033 56.6717
rfemur -36.3125 -3.23424 15.9133
rtibia 58.4176
rfoot -9.07436 -10.4329
rtoes -2.48957
lfemur -8.44082 -1.10233 -30.7817
ltibia 27.1758
lfoot -18.7603 2.24849
ltoes 2.69473
170
root 0.949474 17.3083 -18.7908 3.97874 -1.85575 6.48204
lowerback 7.39265 -0.313443 -6.34814
upperback 0.92696 -0.926464 0.0638527
thorax -3.08477 -0.385872 3.727
lowerneck -14.274 -3.84814 -10.3
upperneck 19.9302 -4.30575 6.32455
head 8.96472 -2.14572 3.35631
rclavicle -3.57812e-015 8.34896e-015
rhumerus -29.657 -5.1351 -83.6786
rradius 38.7127
rwrist 3.11867
rhand -15.4808 12.7059
rfingers 7.12502
rthumb 10.701 -17.0016
lclavicle -3.57812e-015 8.34896e-015
lhumerus -24.682 3.44658 82.6687
lradius 30.5432
lwrist -10.5041
lhand -10.6775 27.2151
lfingers 7.12502
lthumb 15.3311 56.6268
rfemur -36.5967 -3.17442 15.74
rtibia 56.1709
rfoot -9.17043 -10.5586
rtoes -1.19045
lfemur -7.51762 -1.07712 -31.0164
ltibia 26.7273
lfoot -18.9329 2.41207
ltoes 1.75267
171
root 0.946388 17.2912 -18.6427 3.89162 -1.88973 6.48452
lowerback 7.41102 -0.411765 -6.37511
upperback 1.09536 -1.05275 0.116051
thorax -2.90401 -0.45806 3.80718
lowerneck -14.481 -3.88161 -10.3131
upperneck 19.9142 -4.33829 6.37473
head 9.00167 -2.15316 3.36976
rclavicle -2.59414e-014 -2.0276e-014
rhumerus -29.2727 -5.38785 -83.5692
rradius 38.649
rwrist 3.24014
rhand -15.1767 12.9815
rfingers 7.12502
rthumb 10.9944 -16.7106
lclavicle -2.59414e-014 -2.0276e-014
lhumerus -24.1643 3.11299 82.7293
lradius 30.8014
lwrist -9.85502
lhand -10.5746 25.9644
lfingers 7.12502
lthumb 15.4303 55.3684
rfemur -36.8012 -3.09892 15.7583
rtibia 53.7741
rfoot -9.7612 -10.7855
rtoes 2.36718
lfemur -6.63424 -1.0155 -31.0503
ltibia 26.3052
lfoot -19.0393 2.50062
ltoes 1.01327
172
root 0.942136 17.2823 -18.486 3.91567 -1.93255 6.46811
lowerback 7.34691 -0.490541 -6.39816
upperback 1.07744 -1.15379 0.161457
thorax -2.87404 -0.508463 3.87588
lowerneck -14.3619 -3.92801 -10.3235
upperneck 19.8631 -4.42799 6.44574
head 8.97219 -2.19031 3.38517
rclavicle 7.45443e-015 2.38542e-015
rhumerus -29.3178 -5.59704 -83.4394
rradius 38.6609
rwrist 3.33547
rhand -15.1241 13.4442
rfingers 7.12502
rthumb 11.0451 -16.2452
lclavicle 7.45443e-015 2.38542e-015
lhumerus -23.783 2.86372 82.7331
lradius 30.7257
lwrist -9.92592
lhand -10.9404 23.3007
lfingers 7.12502
lthumb 15.078 52.7316
rfemur -37.0505 -3.05522 15.8123
rtibia 51.3103
rfoot -9.49767 -11.0234
rtoes 2.2439
lfemur -5.69108 -1.14894 -31.0779
ltibia 25.7545
lfoot -19.228 2.73685
ltoes 0.742112
173
root 0.934342 17.2728 -18.3211 3.94374 -1.96674 6.51905
lowerback 7.28895 -0.574499 -6.52746
upperback 0.991142 -1.27225 0.231039
thorax -2.91359 -0.562309 4.03208
lowerneck -14.3002 -3.90938 -10.3487
upperneck 19.9852 -4.3989 6.40519
head 8.99997 -2.18547 3.38114
rclavicle 1.48095e-014 -2.38542e-015
rhumerus -29.3369 -5.81552 -83.2586
rradius 38.4995
rwrist 3.37608
rhand -15.0762 13.9195
rfingers 7.12502
rthumb 11.0912 -15.7674
lclavicle 1.48095e-014 -2.38542e-015
lhumerus -23.6736 2.59046 82.7911
lradius 30.8125
lwrist -9.75513
lhand -10.8177 26.4256
lfingers 7.12502
lthumb 15.1961 55.8476
rfemur -37.1973 -2.97379 15.7878
rtibia 48.6786
rfoot -8.9508 -11.247
rtoes 0.969849
lfemur -4.75193 -1.21833 -31.1495
ltibia 25.2907
lfoot -19.5321 2.8711
ltoes 0.764311
